<svg width="56" height="44" viewBox="0 0 56 44" fill="none" xmlns="http://www.w3.org/2000/svg">
<circle cx="24" cy="22" r="22" fill="#0061F2"/>
<path d="M15.1554 34.288C12.6354 34.288 10.3554 33.736 8.31542 32.632C6.29942 31.504 4.71542 29.968 3.56342 28.024C2.41142 26.056 1.83542 23.848 1.83542 21.4C1.83542 18.952 2.41142 16.756 3.56342 14.812C4.71542 12.844 6.31142 11.308 8.35142 10.204C10.3914 9.076 12.6714 8.512 15.1914 8.512C17.1594 8.512 18.9594 8.848 20.5914 9.52C22.2234 10.168 23.6154 11.14 24.7674 12.436L22.4274 14.704C20.5314 12.712 18.1674 11.716 15.3354 11.716C13.4634 11.716 11.7714 12.136 10.2594 12.976C8.74742 13.816 7.55942 14.98 6.69542 16.468C5.85542 17.932 5.43542 19.576 5.43542 21.4C5.43542 23.224 5.85542 24.88 6.69542 26.368C7.55942 27.832 8.74742 28.984 10.2594 29.824C11.7714 30.664 13.4634 31.084 15.3354 31.084C18.1434 31.084 20.5074 30.076 22.4274 28.06L24.7674 30.328C23.6154 31.624 22.2114 32.608 20.5554 33.28C18.9234 33.952 17.1234 34.288 15.1554 34.288ZM45.3614 27.7H31.9694L29.1974 34H25.4894L36.9014 8.8H40.4654L51.9134 34H48.1334L45.3614 27.7ZM44.1014 24.82L38.6654 12.472L33.2294 24.82H44.1014Z" fill="black"/>
<path d="M8.31542 32.632L8.07125 33.0684L8.07745 33.0717L8.31542 32.632ZM3.56342 28.024L3.13191 28.2766L3.13328 28.2789L3.56342 28.024ZM3.56342 14.812L3.99357 15.0669L3.99493 15.0646L3.56342 14.812ZM8.35142 10.204L8.58941 10.6438L8.59337 10.6416L8.35142 10.204ZM20.5914 9.52L20.401 9.98238L20.4069 9.98471L20.5914 9.52ZM24.7674 12.436L25.1154 12.795L25.4593 12.4617L25.1411 12.1038L24.7674 12.436ZM22.4274 14.704L22.0652 15.0487L22.4131 15.4142L22.7754 15.063L22.4274 14.704ZM10.2594 12.976L10.0166 12.5389L10.2594 12.976ZM6.69542 16.468L6.26302 16.2169L6.26174 16.2192L6.69542 16.468ZM6.69542 26.368L6.25993 26.6138L6.26482 26.6221L6.69542 26.368ZM10.2594 29.824L10.0166 30.2611L10.2594 29.824ZM22.4274 28.06L22.7754 27.701L22.4132 27.3499L22.0654 27.7152L22.4274 28.06ZM24.7674 30.328L25.1411 30.6602L25.4593 30.3023L25.1154 29.969L24.7674 30.328ZM20.5554 33.28L20.3674 32.8167L20.365 32.8177L20.5554 33.28ZM15.1554 33.788C12.7112 33.788 10.5141 33.2534 8.5534 32.1923L8.07745 33.0717C10.1967 34.2187 12.5597 34.788 15.1554 34.788V33.788ZM8.55957 32.1957C6.61867 31.1097 5.0996 29.6355 3.99357 27.7691L3.13328 28.2789C4.33124 30.3005 5.98017 31.8983 8.07128 33.0683L8.55957 32.1957ZM3.99493 27.7714C2.89108 25.8857 2.33542 23.766 2.33542 21.4H1.33542C1.33542 23.93 1.93177 26.2263 3.13191 28.2766L3.99493 27.7714ZM2.33542 21.4C2.33542 19.034 2.89108 16.9273 3.99357 15.0669L3.13328 14.5571C1.93176 16.5846 1.33542 18.87 1.33542 21.4H2.33542ZM3.99493 15.0646C5.09991 13.1769 6.62835 11.705 8.5894 10.6437L8.11345 9.76426C5.9945 10.911 4.33093 12.5111 3.13191 14.5594L3.99493 15.0646ZM8.59337 10.6416C10.5534 9.5578 12.749 9.012 15.1914 9.012V8.012C12.5938 8.012 10.2295 8.5942 8.10948 9.76644L8.59337 10.6416ZM15.1914 9.012C17.1016 9.012 18.836 9.33791 20.401 9.98234L20.7818 9.05766C19.0828 8.35809 17.2172 8.012 15.1914 8.012V9.012ZM20.4069 9.98471C21.9673 10.6043 23.2943 11.5313 24.3937 12.7682L25.1411 12.1038C23.9366 10.7487 22.4795 9.73172 20.7759 9.05529L20.4069 9.98471ZM24.4194 12.077L22.0794 14.345L22.7754 15.063L25.1154 12.795L24.4194 12.077ZM22.7896 14.3593C20.7961 12.2648 18.2997 11.216 15.3354 11.216V12.216C18.0351 12.216 20.2668 13.1592 22.0652 15.0487L22.7896 14.3593ZM15.3354 11.216C13.3856 11.216 11.6089 11.6543 10.0166 12.5389L10.5022 13.4131C11.9339 12.6177 13.5412 12.216 15.3354 12.216V11.216ZM10.0166 12.5389C8.42623 13.4225 7.17254 14.6505 6.26303 16.2169L7.12782 16.7191C7.9463 15.3095 9.06861 14.2095 10.5022 13.4131L10.0166 12.5389ZM6.26174 16.2192C5.37481 17.765 4.93542 19.496 4.93542 21.4H5.93542C5.93542 19.656 6.33604 18.099 7.12911 16.7168L6.26174 16.2192ZM4.93542 21.4C4.93542 23.3041 5.37481 25.0457 6.26001 26.6138L7.13083 26.1222C6.33603 24.7143 5.93542 23.1439 5.93542 21.4H4.93542ZM6.26482 26.6221C7.17485 28.1641 8.42828 29.3787 10.0166 30.2611L10.5022 29.3869C9.06657 28.5893 7.944 27.4999 7.12603 26.1139L6.26482 26.6221ZM10.0166 30.2611C11.6089 31.1457 13.3856 31.584 15.3354 31.584V30.584C13.5412 30.584 11.9339 30.1823 10.5022 29.3869L10.0166 30.2611ZM15.3354 31.584C18.2789 31.584 20.7742 30.5209 22.7895 28.4048L22.0654 27.7152C20.2406 29.6311 18.0079 30.584 15.3354 30.584V31.584ZM22.0794 28.419L24.4194 30.687L25.1154 29.969L22.7754 27.701L22.0794 28.419ZM24.3937 29.9958C23.2943 31.2326 21.9545 32.1726 20.3674 32.8167L20.7434 33.7433C22.4683 33.0434 23.9365 32.0154 25.1411 30.6602L24.3937 29.9958ZM20.365 32.8177C18.8 33.4621 17.0656 33.788 15.1554 33.788V34.788C17.1812 34.788 19.0468 34.4419 20.7458 33.7423L20.365 32.8177ZM45.3614 27.7L45.819 27.4986L45.6876 27.2H45.3614V27.7ZM31.9694 27.7V27.2H31.6431L31.5117 27.4986L31.9694 27.7ZM29.1974 34V34.5H29.5237L29.655 34.2014L29.1974 34ZM25.4894 34L25.0339 33.7937L24.7141 34.5H25.4894V34ZM36.9014 8.8V8.3H36.5789L36.4459 8.59373L36.9014 8.8ZM40.4654 8.8L40.9206 8.59319L40.7874 8.3H40.4654V8.8ZM51.9134 34V34.5H52.6897L52.3686 33.7932L51.9134 34ZM48.1334 34L47.6757 34.2014L47.8071 34.5H48.1334V34ZM44.1014 24.82V25.32H44.8678L44.559 24.6185L44.1014 24.82ZM38.6654 12.472L39.123 12.2705L38.6654 11.231L38.2078 12.2705L38.6654 12.472ZM33.2294 24.82L32.7718 24.6185L32.463 25.32H33.2294V24.82ZM45.3614 27.2H31.9694V28.2H45.3614V27.2ZM31.5117 27.4986L28.7397 33.7986L29.655 34.2014L32.427 27.9014L31.5117 27.4986ZM29.1974 33.5H25.4894V34.5H29.1974V33.5ZM25.9449 34.2063L37.3569 9.00626L36.4459 8.59373L25.0339 33.7937L25.9449 34.2063ZM36.9014 9.3H40.4654V8.3H36.9014V9.3ZM40.0102 9.0068L51.4582 34.2068L52.3686 33.7932L40.9206 8.59319L40.0102 9.0068ZM51.9134 33.5H48.1334V34.5H51.9134V33.5ZM48.591 33.7986L45.819 27.4986L44.9037 27.9014L47.6757 34.2014L48.591 33.7986ZM44.559 24.6185L39.123 12.2705L38.2078 12.6735L43.6438 25.0215L44.559 24.6185ZM38.2078 12.2705L32.7718 24.6185L33.687 25.0215L39.123 12.6735L38.2078 12.2705ZM33.2294 25.32H44.1014V24.32H33.2294V25.32Z" fill="black"/>
<circle cx="34" cy="22" r="22" fill="#0061F2" fill-opacity="0.25"/>
</svg>
